<?xml version="1.0" standalone="no"?>
<!DOCTYPE svg PUBLIC "-//W3C//DTD SVG 20010904//EN"
 "http://www.w3.org/TR/2001/REC-SVG-20010904/DTD/svg10.dtd">
<svg version="1.0" xmlns="http://www.w3.org/2000/svg"
 width="256.000000pt" height="256.000000pt" viewBox="0 0 256.000000 256.000000"
 preserveAspectRatio="xMidYMid meet">
<metadata>
Created by potrace 1.14, written by Peter Selinger 2001-2017
</metadata>
<g transform="translate(0.000000,256.000000) scale(0.100000,-0.100000)"
fill="#000000" stroke="none">
<path d="M1154 2385 c-113 -34 -197 -107 -247 -212 l-32 -68 0 -405 c0 -376 1
-409 19 -457 79 -212 332 -313 536 -215 102 48 174 130 204 232 24 80 24 790
0 870 -26 86 -92 169 -174 218 -80 47 -216 63 -306 37z"/>
<path d="M612 1267 c-29 -30 -28 -76 2 -150 38 -93 86 -165 156 -237 61 -62
191 -150 222 -150 8 0 18 -4 23 -9 13 -10 111 -37 150 -40 6 -1 10 -112 10
-312 l0 -311 24 -19 c33 -27 82 -25 111 6 l24 26 0 303 0 303 72 17 c229 54
408 214 492 439 12 31 21 69 20 83 -3 37 -41 74 -75 74 -43 0 -70 -25 -88 -83
-51 -154 -182 -291 -328 -341 -53 -18 -139 -33 -177 -31 -162 9 -281 64 -382
174 -59 65 -79 100 -128 229 -22 56 -88 71 -128 29z"/>
</g>
</svg>
